<?xml version="1.0" encoding="iso-8859-1"?>
<!-- Generator: Adobe Illustrator 19.0.0, SVG Export Plug-In . SVG Version: 6.00 Build 0)  -->
<svg xmlns="http://www.w3.org/2000/svg" xmlns:xlink="http://www.w3.org/1999/xlink" version="1.1" id="Layer_1" x="0px" y="0px" viewBox="0 0 512 512" style="enable-background:new 0 0 512 512;" xml:space="preserve" width="512px" height="512px">
<g>
	<g>
		<g>
			<path d="M510.9,251.111c-0.478-1-1.111-1.944-1.889-2.8L315.678,32.234c-2.156-2.411-5.239-3.789-8.478-3.789H204.84     c-0.178,0-0.628,0.011-0.945,0.034c0,0-0.005,0-0.011,0h-0.006c-1.128,0.089-2.211,0.344-3.222,0.744     c0,0-0.006,0.011-0.017,0.011c-0.916,0.356-1.8,0.844-2.617,1.456c-0.35,0.256-0.684,0.533-1,0.822     c0,0.011-0.006,0.011-0.006,0.011l-0.006,0.011c-1.128,1.056-1.995,2.289-2.594,3.633c-0.611,1.367-0.967,2.878-0.994,4.467     c-0.006,0.367,0.005,0.733,0.033,1.1c0.006,0.011,0.006,0.022,0.006,0.022s0,0,0,0.011c0.089,1.089,0.333,2.144,0.717,3.133     c0,0,0,0,0,0.011l0.006,0.011c0.361,0.944,0.856,1.844,1.483,2.678c0,0,0,0.011,0.006,0.022h0.006     c0.211,0.289,0.439,0.556,0.678,0.822L382.956,256L196.357,464.555c-0.239,0.267-0.467,0.533-0.678,0.822h-0.006     c-0.005,0.011-0.011,0.022-0.011,0.022c-0.622,0.833-1.116,1.733-1.478,2.678l-0.006,0.011c0,0.011,0,0.011,0,0.011     c-0.383,0.989-0.628,2.045-0.717,3.133c0,0.011,0,0.011,0,0.011s0,0.011-0.006,0.022c-0.028,0.367-0.039,0.733-0.033,1.1     c0.028,1.589,0.383,3.1,0.994,4.467c0.6,1.344,1.467,2.578,2.594,3.633l0.011,0.011c0,0,0,0,0,0.011     c0.305,0.278,0.617,0.544,0.95,0.789c0.005,0.011,0.011,0.011,0.022,0.022c0.894,0.667,1.867,1.189,2.878,1.556     c0.939,0.344,1.933,0.578,2.967,0.656c0.322,0.033,0.639,0.044,0.955,0.044c0.017,0,0.034,0,0.045,0h102.361     c3.239,0,6.322-1.378,8.478-3.789l193.333-216.077c0.778-0.856,1.411-1.8,1.889-2.8c0.733-1.545,1.1-3.222,1.1-4.889     S511.634,252.656,510.9,251.111z M302.112,460.8h-71.861l176.361-197.11c0.778-0.856,1.411-1.8,1.889-2.8     c0.733-1.545,1.1-3.222,1.1-4.889c0-1.667-0.367-3.345-1.1-4.889c-0.478-1-1.111-1.944-1.889-2.8L230.251,51.201h71.861     L485.356,256L302.112,460.8z" fill="#2849c9"/>
			<path d="M317.479,260.889c0.733-1.545,1.1-3.222,1.1-4.889s-0.367-3.344-1.1-4.889c-0.478-1-1.111-1.944-1.889-2.8     L122.257,32.234c-2.156-2.411-5.239-3.789-8.478-3.789H11.418c-0.239,0-0.628,0.011-0.944,0.033c0,0-0.005,0-0.011,0h-0.006     c-1.128,0.089-2.211,0.344-3.222,0.744c0,0-0.006,0.011-0.017,0.011c-0.917,0.356-1.8,0.845-2.617,1.456     c-0.35,0.256-0.684,0.533-1,0.822c0,0.011-0.006,0.011-0.006,0.011L3.59,31.534c-1.128,1.056-1.995,2.289-2.594,3.633     c-0.611,1.367-0.967,2.878-0.994,4.467c-0.006,0.367,0.005,0.733,0.033,1.1c0.006,0.011,0.006,0.022,0.006,0.022s0,0,0,0.011     c0.089,1.089,0.333,2.144,0.716,3.133c0,0,0,0,0,0.011l0.006,0.011c0.361,0.944,0.855,1.844,1.483,2.678c0,0,0,0.011,0.006,0.022     h0.006c0.211,0.289,0.439,0.556,0.678,0.822L189.534,256L2.935,464.555c-0.239,0.267-0.467,0.533-0.678,0.822H2.252     c-0.005,0.011-0.011,0.022-0.011,0.022c-0.622,0.833-1.116,1.733-1.478,2.678l-0.006,0.011c0,0.011,0,0.011,0,0.011     c-0.383,0.989-0.628,2.045-0.717,3.133c0,0.011,0,0.011,0,0.011s0,0.011-0.006,0.022c-0.028,0.367-0.039,0.733-0.033,1.1     c0.028,1.589,0.383,3.1,0.994,4.467c0.6,1.344,1.467,2.578,2.594,3.633l0.011,0.011c0,0,0,0,0,0.011     c0.306,0.278,0.617,0.544,0.95,0.789c0.005,0.011,0.011,0.011,0.022,0.022c0.894,0.667,1.867,1.189,2.878,1.556     c0.939,0.344,1.933,0.578,2.967,0.656c0.322,0.033,0.639,0.044,0.955,0.044c0.017,0,0.034,0,0.045,0h102.361     c3.239,0,6.322-1.378,8.478-3.789L315.59,263.689C316.368,262.834,317.001,261.889,317.479,260.889z M108.69,460.8H36.829     L213.19,263.69c0.778-0.845,1.405-1.789,1.883-2.789c0.739-1.544,1.106-3.222,1.106-4.9c0-1.678-0.367-3.356-1.106-4.9     c-0.478-1-1.106-1.944-1.883-2.789L36.829,51.201h71.861L291.934,256L108.69,460.8z" fill="#2849c9"/>
		</g>
	</g>
</g>
<g>
</g>
<g>
</g>
<g>
</g>
<g>
</g>
<g>
</g>
<g>
</g>
<g>
</g>
<g>
</g>
<g>
</g>
<g>
</g>
<g>
</g>
<g>
</g>
<g>
</g>
<g>
</g>
<g>
</g>
</svg>
